# Object Export From Tinkercad Server 2015

mtllib obj.mtl

o obj_0
v -5.2114 		-20.1827 		0
v 1 		-21.0006 		0
v -3.998 		-4.136 		32
v -1.627 		-5.344 		32
v -10.9998 		-17.7849 		0
v -3.998 		-4.136 		19.0281
v -3.3194 		-4.4817 		19.2031
v -5.879 		-2.255 		32
v -15.9703 		-13.9703 		0
v 8.8101 		-1.5091 		19.1782
v -11.5 		-18.651 		0
v -5.067 		-3.067 		19.2767
v -19.7849 		-8.9998 		0
v -16.678 		-14.678 		0
v -23.148 		9.47 		0
v -22.1827 		-3.2114 		0
v -20.651 		-9.5 		0
v -7.595 		5.3029 		19.3221
v -7.9593 		3 		19.2488
v -23.0006 		3 		0
v -22.1827 		9.2114 		0
v -19.7849 		14.9998 		0
v -15.9703 		19.9703 		0
v -20.651 		15.5 		0
v -10.9998 		23.7849 		0
v -16.678 		20.678 		0
v -5.2114 		26.1827 		0
v 22.651 		-9.5 		0
v -11.5 		24.651 		0
v -5.879 		-2.255 		19.0878
v 1 		27.0006 		0
v -5.47 		27.148 		0
v -6.3842 		-1.2631 		19.344
v 8.281 		-2.547 		18.9215
v 7.414 		-3.414 		19.1153
v 7.2114 		26.1827 		0
v 1 		28 		0
v 12.9998 		23.7849 		0
v 7.47 		27.148 		0
v 17.9703 		19.9703 		0
v 13.5 		24.651 		0
v 21.7849 		14.9998 		0
v 18.678 		20.678 		0
v 24.1827 		9.2114 		0
v 22.651 		15.5 		0
v -7.086 		0.115 		19.1914
v 25.0006 		3 		0
v 25.148 		9.47 		0
v 24.1827 		-3.2114 		0
v -7.1954 		0.8042 		19.3966
v 26 		3 		0
v 25.148 		-3.47 		0
v 21.7849 		-8.9998 		0
v 17.9703 		-13.9703 		0
v 18.678 		-14.678 		0
v 12.9998 		-17.7849 		0
v 7.2114 		-20.1827 		0
v 13.5 		-18.651 		0
v 1 		-6.257 		18.8916
v 3.641 		10.872 		32
v 1 		-22 		0
v 3.3794 		-5.8805 		18.9674
v -5.47 		-21.148 		0
v 7.47 		-21.148 		0
v 3.627 		10.829 		32
v -23.148 		-3.47 		0
v -24 		3 		0
v 9.129 		0.101 		32
v 9.547 		2.743 		32
v -8 		2.743 		19.1594
v 9.673 		0.6762 		19.2252
v 9.129 		5.384 		32
v -7.673 		0.6762 		19.2252
v 9.086 		5.37 		32
v 9.56 		5.524 		31.497
v 9.503 		2.743 		32
v 9.086 		0.115 		32
v -7.086 		0.115 		32
v -7.503 		2.743 		32
v -7.129 		0.101 		32
v -7.547 		2.743 		32
v 1 		-5.805 		32
v 3.641 		-5.386 		32
v 7.915 		-2.281 		32
v 1 		-5.76 		32
v 7.879 		-2.255 		32
v 5.998 		-4.136 		32
v 6.024 		-4.172 		32
v 3.627 		-5.344 		32
v -4.024 		-4.172 		32
v -1.641 		-5.386 		32
v -5.915 		-2.281 		32
v 3.781 		11.302 		31.497
v 10 		2.743 		31.497
v 3.781 		-5.817 		18.8524
v -7.56 		-0.038 		19.0208
v 5.5653 		-4.9074 		19.0433
v -6.8101 		-1.5091 		19.1782
v -7.503 		2.743 		19.3311
v -7.4622 		3 		19.4244
v -7.117 		5.1748 		19.498
v -8 		2.743 		31.497
v -7.086 		5.37 		19.4399
v -6.1815 		7.1461 		19.6366
v 3.781 		-5.817 		31.497
v 1 		-6.257 		31.497
v 7.879 		7.74 		32
v 6.29 		-4.538 		31.497
v 7.915 		7.767 		32
v 8.281 		-2.547 		31.497
v -5.879 		7.74 		19.4832
v 8.281 		8.033 		31.497
v -4.8095 		8.8095 		19.732
v 9.56 		-0.038 		31.497
v 9.56 		-0.038 		19.0208
v -3.998 		9.621 		19.5432
v -3.0897 		10.0838 		19.7776
v 6.29 		-4.538 		18.8641
v -1.627 		10.829 		19.6153
v -1.1192 		10.9094 		19.7666
v -7.56 		-0.038 		31.497
v -6.281 		-2.547 		31.497
v -4.29 		-4.538 		31.497
v 1 		11.29 		32
v 1 		11.245 		19.696
v -1.781 		-5.817 		31.497
v 1 		11.245 		32
v 10 		2.743 		19.1594
v 9.9593 		3 		19.2488
v 3.1192 		10.9094 		19.7666
v 3.627 		10.829 		19.6153
v 5.998 		9.621 		32
v 6.024 		9.658 		32
v 5.0897 		10.0838 		19.7776
v 1 		11.743 		31.497
v 5.998 		9.621 		19.5432
v 6.29 		10.024 		31.497
v 6.8095 		8.8095 		19.732
v -6.281 		-2.547 		18.9215
v -5.414 		-3.414 		19.1153
v 7.879 		7.74 		19.4832
v -1.641 		10.872 		32
v 8.1815 		7.1461 		19.6366
v -1.627 		10.829 		32
v 9.595 		5.3029 		19.3221
v 9.086 		5.37 		19.4399
v 9.117 		5.1748 		19.498
v -5.915 		7.767 		32
v 9.56 		5.524 		19.2588
v -5.879 		7.74 		32
v 8.6077 		7.3922 		19.4587
v 7.157 		9.157 		19.5514
v 6.29 		10.024 		19.3577
v 5.3358 		10.51 		19.594
v 9.4622 		3 		19.4244
v 9.503 		2.743 		19.3311
v 9.1954 		0.8042 		19.3966
v 9.086 		0.115 		19.1914
v 8.3842 		-1.2631 		19.344
v -6.281 		8.033 		31.497
v -1.2471 		11.3867 		19.5809
v 7.879 		-2.255 		19.0878
v 7.067 		-3.067 		19.2767
v 1 		11.743 		19.5084
v -1.781 		11.302 		19.4283
v -3.3358 		10.51 		19.594
v -4.29 		-4.538 		18.8641
v 5.998 		-4.136 		19.0281
v 5.3194 		-4.4817 		19.2031
v -3.5653 		-4.9074 		19.0433
v 3.627 		-5.344 		19.0153
v 3.2516 		-5.4035 		19.1273
v 1 		-5.76 		19.0522
v -7.129 		5.384 		32
v -7.086 		5.37 		32
v 3.781 		11.302 		19.4283
v 3.2471 		11.3867 		19.5809
v -1.781 		11.302 		31.497
v -1.781 		-5.817 		18.8524
v -1.3794 		-5.8805 		18.9674
v -4.29 		10.024 		19.3577
v -7.56 		5.524 		31.497
v -5.157 		9.157 		19.5514
v -4.024 		9.658 		32
v -3.998 		9.621 		32
v 8.281 		8.033 		19.3002
v -1.2516 		-5.4035 		19.1273
v -1.627 		-5.344 		19.0153
v -6.281 		8.033 		19.3002
v -4.29 		10.024 		31.497
v -6.6077 		7.3922 		19.4587
v -7.56 		5.524 		19.2588
# 192 vertices

g group_0_16448250

usemtl color_16448250
s 0

f 11 	5 	63
f 1 	63 	5
f 14 	9 	5
f 14 	5 	11
f 7 	5 	6
f 14 	13 	9
f 12 	6 	9
f 14 	17 	13
f 18 	19 	102
f 17 	66 	13
f 16 	13 	66
f 9 	6 	5
f 21 	15 	22
f 24 	22 	15
f 26 	23 	22
f 26 	22 	24
f 23 	26 	25
f 29 	25 	26
f 32 	31 	27
f 29 	32 	25
f 9 	13 	30
f 9 	30 	12
f 27 	25 	32
f 37 	39 	31
f 32 	37 	31
f 39 	38 	36
f 36 	31 	39
f 33 	30 	13
f 41 	43 	38
f 39 	41 	38
f 43 	42 	40
f 40 	38 	43
f 45 	48 	42
f 43 	45 	42
f 48 	47 	44
f 44 	42 	48
f 55 	28 	34
f 51 	52 	47
f 48 	51 	47
f 33 	13 	46
f 49 	47 	52
f 50 	46 	16
f 16 	46 	13
f 35 	55 	34
f 28 	55 	53
f 53 	49 	52
f 52 	28 	53
f 10 	34 	28
f 55 	56 	54
f 54 	53 	55
f 55 	58 	56
f 2 	57 	64
f 57 	56 	64
f 58 	64 	56
f 61 	64 	59
f 64 	62 	59
f 1 	2 	63
f 61 	63 	2
f 61 	2 	64
f 18 	15 	19
f 67 	19 	15
f 15 	21 	20
f 20 	16 	66
f 66 	67 	20
f 15 	20 	67
f 68 	77 	84
f 132 	133 	65
f 60 	65 	133
f 19 	70 	102
f 69 	77 	68
f 72 	76 	69
f 121 	102 	73
f 76 	72 	74
f 77 	69 	76
f 79 	81 	78
f 81 	80 	78
f 83 	89 	82
f 77 	86 	84
f 6 	12 	3
f 87 	88 	86
f 88 	84 	86
f 46 	78 	33
f 89 	83 	87
f 88 	87 	83
f 85 	82 	89
f 91 	3 	90
f 91 	82 	4
f 85 	4 	82
f 3 	91 	4
f 73 	70 	66
f 67 	66 	70
f 3 	8 	90
f 92 	90 	8
f 67 	70 	19
f 80 	92 	78
f 8 	78 	92
f 72 	69 	94
f 20 	100 	99
f 50 	16 	99
f 20 	99 	16
f 94 	75 	72
f 167 	123 	140
f 99 	79 	50
f 79 	78 	50
f 100 	79 	99
f 162 	163 	86
f 30 	33 	8
f 169 	89 	87
f 21 	101 	100
f 21 	100 	20
f 17 	98 	96
f 80 	81 	102
f 58 	97 	95
f 124 	60 	93
f 124 	93 	135
f 62 	64 	95
f 64 	58 	95
f 21 	22 	103
f 101 	21 	103
f 104 	103 	22
f 59 	62 	106
f 105 	106 	62
f 105 	62 	95
f 175 	79 	101
f 103 	175 	101
f 95 	97 	105
f 108 	105 	97
f 72 	109 	107
f 72 	107 	74
f 103 	104 	175
f 113 	111 	23
f 104 	22 	111
f 83 	82 	106
f 23 	111 	22
f 106 	105 	83
f 112 	109 	75
f 108 	88 	105
f 72 	75 	109
f 105 	88 	83
f 108 	110 	88
f 84 	88 	110
f 110 	68 	84
f 23 	25 	116
f 23 	116 	113
f 110 	114 	68
f 69 	68 	114
f 94 	69 	114
f 117 	116 	25
f 71 	115 	52
f 97 	118 	108
f 35 	110 	108
f 118 	35 	108
f 117 	25 	119
f 89 	172 	85
f 10 	28 	115
f 120 	119 	27
f 52 	115 	28
f 27 	119 	25
f 86 	163 	87
f 124 	65 	60
f 55 	118 	58
f 120 	27 	125
f 127 	65 	124
f 35 	118 	55
f 125 	27 	31
f 121 	80 	102
f 121 	122 	92
f 128 	94 	71
f 129 	145 	94
f 128 	129 	94
f 92 	80 	121
f 149 	75 	145
f 92 	122 	90
f 123 	90 	122
f 91 	90 	123
f 130 	125 	36
f 126 	91 	123
f 106 	82 	126
f 97 	58 	118
f 125 	31 	36
f 112 	75 	151
f 126 	82 	91
f 187 	4 	85
f 109 	133 	132
f 109 	132 	107
f 36 	131 	130
f 94 	114 	71
f 94 	145 	75
f 36 	38 	131
f 134 	131 	38
f 153 	154 	137
f 149 	151 	75
f 112 	152 	137
f 96 	66 	17
f 134 	38 	136
f 40 	136 	38
f 138 	136 	40
f 109 	112 	133
f 137 	133 	112
f 73 	66 	96
f 93 	60 	137
f 60 	133 	137
f 139 	140 	122
f 167 	170 	123
f 40 	141 	138
f 4 	7 	3
f 42 	143 	141
f 8 	3 	12
f 30 	8 	12
f 141 	40 	42
f 51 	48 	129
f 135 	142 	124
f 145 	129 	48
f 143 	42 	146
f 44 	146 	42
f 147 	146 	44
f 174 	150 	148
f 146 	74 	143
f 147 	74 	146
f 147 	44 	155
f 47 	155 	44
f 74 	147 	76
f 155 	76 	147
f 129 	128 	51
f 52 	51 	128
f 136 	132 	134
f 49 	156 	47
f 155 	47 	156
f 157 	156 	49
f 71 	52 	128
f 156 	76 	155
f 132 	65 	134
f 142 	144 	124
f 184 	144 	142
f 127 	124 	144
f 157 	49 	158
f 49 	53 	158
f 159 	158 	53
f 76 	157 	77
f 158 	77 	157
f 158 	159 	77
f 54 	162 	53
f 37 	32 	164
f 161 	164 	32
f 98 	17 	139
f 14 	139 	17
f 163 	162 	54
f 139 	14 	140
f 159 	53 	162
f 122 	140 	123
f 179 	126 	170
f 163 	54 	168
f 54 	56 	168
f 152 	43 	153
f 169 	168 	56
f 6 	3 	7
f 168 	87 	163
f 111 	113 	150
f 43 	41 	153
f 119 	144 	117
f 169 	56 	171
f 57 	171 	56
f 172 	171 	57
f 140 	14 	167
f 171 	89 	169
f 168 	169 	87
f 154 	153 	41
f 2 	173 	57
f 172 	57 	173
f 150 	174 	175
f 81 	79 	174
f 156 	157 	76
f 173 	85 	172
f 171 	172 	89
f 35 	34 	110
f 176 	93 	154
f 10 	114 	110
f 34 	10 	110
f 115 	114 	10
f 164 	135 	177
f 115 	71 	114
f 77 	159 	86
f 162 	86 	159
f 125 	130 	127
f 136 	138 	132
f 143 	74 	107
f 127 	144 	120
f 170 	167 	11
f 131 	134 	65
f 165 	178 	161
f 32 	29 	165
f 32 	165 	161
f 107 	132 	138
f 167 	14 	11
f 123 	170 	126
f 166 	165 	29
f 106 	126 	180
f 179 	180 	126
f 142 	135 	178
f 178 	184 	142
f 189 	160 	183
f 160 	174 	148
f 182 	174 	160
f 178 	190 	184
f 119 	120 	144
f 180 	179 	63
f 11 	63 	179
f 151 	149 	45
f 46 	50 	78
f 185 	150 	113
f 116 	185 	113
f 145 	48 	149
f 176 	39 	177
f 45 	149 	48
f 170 	11 	179
f 181 	26 	183
f 184 	148 	185
f 150 	185 	148
f 154 	41 	176
f 184 	185 	144
f 151 	186 	112
f 39 	176 	41
f 59 	106 	180
f 153 	137 	152
f 186 	152 	112
f 93 	137 	154
f 61 	59 	63
f 175 	174 	79
f 176 	177 	93
f 93 	177 	135
f 180 	63 	59
f 164 	161 	135
f 166 	29 	181
f 127 	130 	65
f 131 	65 	130
f 26 	181 	29
f 181 	190 	166
f 2 	1 	173
f 187 	173 	1
f 190 	178 	166
f 85 	173 	187
f 181 	183 	190
f 141 	107 	138
f 141 	143 	107
f 135 	161 	178
f 160 	191 	182
f 190 	183 	160
f 192 	18 	182
f 7 	188 	5
f 187 	1 	188
f 5 	188 	1
f 165 	166 	178
f 81 	182 	102
f 160 	189 	191
f 174 	182 	81
f 192 	182 	191
f 188 	4 	187
f 148 	184 	160
f 190 	160 	184
f 96 	121 	73
f 7 	4 	188
f 185 	117 	144
f 116 	117 	185
f 125 	127 	120
f 175 	104 	150
f 111 	150 	104
f 39 	37 	164
f 177 	39 	164
f 45 	43 	186
f 26 	24 	189
f 152 	186 	43
f 45 	186 	151
f 183 	26 	189
f 191 	189 	24
f 102 	182 	18
f 70 	73 	102
f 8 	33 	78
f 100 	101 	79
f 121 	98 	122
f 96 	98 	121
f 139 	122 	98
f 15 	18 	192
f 15 	192 	24
f 191 	24 	192
# 384 faces

 #end of obj_0

